<svg width="144" height="36" viewBox="0 0 144 36" fill="none" xmlns="http://www.w3.org/2000/svg">
<path d="M4.03242 19L0.172422 8.16H3.77242L6.83242 17.22H5.11242L8.29242 8.16H11.5324L14.5924 17.22H12.9124L16.0724 8.16H19.4124L15.5524 19H11.8724L9.27242 11.5H10.3924L7.71242 19H4.03242ZM25.9605 19.18C24.6805 19.18 23.5605 18.94 22.6005 18.46C21.6539 17.9667 20.9139 17.3 20.3805 16.46C19.8605 15.6067 19.6005 14.64 19.6005 13.56C19.6005 12.48 19.8539 11.52 20.3605 10.68C20.8805 9.82667 21.5939 9.16667 22.5005 8.7C23.4072 8.22 24.4272 7.98 25.5605 7.98C26.6272 7.98 27.6005 8.2 28.4805 8.64C29.3605 9.06667 30.0605 9.7 30.5805 10.54C31.1005 11.38 31.3605 12.4 31.3605 13.6C31.3605 13.7333 31.3539 13.8867 31.3405 14.06C31.3272 14.2333 31.3139 14.3933 31.3005 14.54H22.7205V12.54H29.2805L27.8405 13.1C27.8539 12.6067 27.7605 12.18 27.5605 11.82C27.3739 11.46 27.1072 11.18 26.7605 10.98C26.4272 10.78 26.0339 10.68 25.5805 10.68C25.1272 10.68 24.7272 10.78 24.3805 10.98C24.0472 11.18 23.7872 11.4667 23.6005 11.84C23.4139 12.2 23.3205 12.6267 23.3205 13.12V13.7C23.3205 14.2333 23.4272 14.6933 23.6405 15.08C23.8672 15.4667 24.1872 15.7667 24.6005 15.98C25.0139 16.18 25.5072 16.28 26.0805 16.28C26.6139 16.28 27.0672 16.2067 27.4405 16.06C27.8272 15.9 28.2072 15.66 28.5805 15.34L30.5805 17.42C30.0605 17.9933 29.4205 18.4333 28.6605 18.74C27.9005 19.0333 27.0005 19.18 25.9605 19.18ZM32.7707 11.44L34.2707 6.24L34.8107 8.4C34.144 8.4 33.5974 8.20667 33.1707 7.82C32.744 7.42 32.5307 6.88667 32.5307 6.22C32.5307 5.54 32.744 5 33.1707 4.6C33.6107 4.18667 34.1574 3.98 34.8107 3.98C35.464 3.98 36.004 4.18667 36.4307 4.6C36.8574 5 37.0707 5.54 37.0707 6.22C37.0707 6.40667 37.0574 6.6 37.0307 6.8C37.004 6.98667 36.944 7.21333 36.8507 7.48C36.7707 7.73333 36.6307 8.08 36.4307 8.52L35.1507 11.44H32.7707ZM38.8548 19V8.16H42.4748V11.32L41.9348 10.42C42.2548 9.60667 42.7748 9 43.4948 8.6C44.2148 8.18667 45.0881 7.98 46.1148 7.98V11.4C45.9414 11.3733 45.7881 11.36 45.6548 11.36C45.5348 11.3467 45.4014 11.34 45.2548 11.34C44.4814 11.34 43.8548 11.5533 43.3748 11.98C42.8948 12.3933 42.6548 13.0733 42.6548 14.02V19H38.8548ZM53.2652 19.18C51.9852 19.18 50.8652 18.94 49.9052 18.46C48.9586 17.9667 48.2186 17.3 47.6852 16.46C47.1652 15.6067 46.9052 14.64 46.9052 13.56C46.9052 12.48 47.1586 11.52 47.6652 10.68C48.1852 9.82667 48.8986 9.16667 49.8052 8.7C50.7119 8.22 51.7319 7.98 52.8652 7.98C53.9319 7.98 54.9052 8.2 55.7852 8.64C56.6652 9.06667 57.3652 9.7 57.8852 10.54C58.4052 11.38 58.6652 12.4 58.6652 13.6C58.6652 13.7333 58.6586 13.8867 58.6452 14.06C58.6319 14.2333 58.6186 14.3933 58.6052 14.54H50.0252V12.54H56.5852L55.1452 13.1C55.1586 12.6067 55.0652 12.18 54.8652 11.82C54.6786 11.46 54.4119 11.18 54.0652 10.98C53.7319 10.78 53.3386 10.68 52.8852 10.68C52.4319 10.68 52.0319 10.78 51.6852 10.98C51.3519 11.18 51.0919 11.4667 50.9052 11.84C50.7186 12.2 50.6252 12.6267 50.6252 13.12V13.7C50.6252 14.2333 50.7319 14.6933 50.9452 15.08C51.1719 15.4667 51.4919 15.7667 51.9052 15.98C52.3186 16.18 52.8119 16.28 53.3852 16.28C53.9186 16.28 54.3719 16.2067 54.7452 16.06C55.1319 15.9 55.5119 15.66 55.8852 15.34L57.8852 17.42C57.3652 17.9933 56.7252 18.4333 55.9652 18.74C55.2052 19.0333 54.3052 19.18 53.2652 19.18Z" fill="#333333"/>
<path d="M70.1776 19.18C69.2576 19.18 68.3576 19.0733 67.4776 18.86C66.6109 18.6467 65.9109 18.38 65.3776 18.06L66.5176 15.46C67.0242 15.7667 67.6176 16.0133 68.2976 16.2C68.9776 16.3733 69.6442 16.46 70.2976 16.46C70.9376 16.46 71.3776 16.3933 71.6176 16.26C71.8709 16.1267 71.9976 15.9467 71.9976 15.72C71.9976 15.5067 71.8776 15.3533 71.6376 15.26C71.4109 15.1533 71.1042 15.0733 70.7176 15.02C70.3442 14.9667 69.9309 14.9067 69.4776 14.84C69.0242 14.7733 68.5642 14.6867 68.0976 14.58C67.6442 14.46 67.2242 14.2867 66.8376 14.06C66.4642 13.82 66.1642 13.5 65.9376 13.1C65.7109 12.7 65.5976 12.1933 65.5976 11.58C65.5976 10.8867 65.7976 10.2733 66.1976 9.74C66.6109 9.19333 67.2109 8.76667 67.9976 8.46C68.7842 8.14 69.7442 7.98 70.8776 7.98C71.6376 7.98 72.4042 8.06 73.1776 8.22C73.9642 8.36667 74.6242 8.59333 75.1576 8.9L74.0176 11.48C73.4842 11.1733 72.9509 10.9667 72.4176 10.86C71.8842 10.74 71.3776 10.68 70.8976 10.68C70.2576 10.68 69.8042 10.7533 69.5376 10.9C69.2842 11.0467 69.1576 11.2267 69.1576 11.44C69.1576 11.6533 69.2709 11.82 69.4976 11.94C69.7242 12.0467 70.0242 12.1333 70.3976 12.2C70.7842 12.2533 71.2042 12.3133 71.6576 12.38C72.1109 12.4333 72.5642 12.52 73.0176 12.64C73.4842 12.76 73.9042 12.94 74.2776 13.18C74.6642 13.4067 74.9709 13.72 75.1976 14.12C75.4242 14.5067 75.5376 15.0067 75.5376 15.62C75.5376 16.2867 75.3309 16.8867 74.9176 17.42C74.5176 17.9533 73.9176 18.38 73.1176 18.7C72.3309 19.02 71.3509 19.18 70.1776 19.18ZM82.0151 19.18C80.6284 19.18 79.5484 18.84 78.7751 18.16C78.0017 17.4667 77.6151 16.4267 77.6151 15.04V5.74H81.4151V15C81.4151 15.3867 81.5217 15.6933 81.7351 15.92C81.9484 16.1333 82.2217 16.24 82.5551 16.24C83.0084 16.24 83.3951 16.1267 83.7151 15.9L84.6551 18.56C84.3351 18.7733 83.9417 18.9267 83.4751 19.02C83.0084 19.1267 82.5217 19.18 82.0151 19.18ZM76.0351 11.4V8.56H83.8951V11.4H76.0351ZM86.1204 19V8.16H89.7404V11.32L89.2004 10.42C89.5204 9.60667 90.0404 9 90.7604 8.6C91.4804 8.18667 92.3537 7.98 93.3804 7.98V11.4C93.2071 11.3733 93.0537 11.36 92.9204 11.36C92.8004 11.3467 92.6671 11.34 92.5204 11.34C91.7471 11.34 91.1204 11.5533 90.6404 11.98C90.1604 12.3933 89.9204 13.0733 89.9204 14.02V19H86.1204ZM100.531 19.18C99.2509 19.18 98.1309 18.94 97.1709 18.46C96.2242 17.9667 95.4842 17.3 94.9509 16.46C94.4309 15.6067 94.1709 14.64 94.1709 13.56C94.1709 12.48 94.4242 11.52 94.9309 10.68C95.4509 9.82667 96.1642 9.16667 97.0709 8.7C97.9775 8.22 98.9975 7.98 100.131 7.98C101.198 7.98 102.171 8.2 103.051 8.64C103.931 9.06667 104.631 9.7 105.151 10.54C105.671 11.38 105.931 12.4 105.931 13.6C105.931 13.7333 105.924 13.8867 105.911 14.06C105.898 14.2333 105.884 14.3933 105.871 14.54H97.2909V12.54H103.851L102.411 13.1C102.424 12.6067 102.331 12.18 102.131 11.82C101.944 11.46 101.678 11.18 101.331 10.98C100.998 10.78 100.604 10.68 100.151 10.68C99.6975 10.68 99.2975 10.78 98.9509 10.98C98.6175 11.18 98.3575 11.4667 98.1709 11.84C97.9842 12.2 97.8909 12.6267 97.8909 13.12V13.7C97.8909 14.2333 97.9975 14.6933 98.2109 15.08C98.4375 15.4667 98.7575 15.7667 99.1709 15.98C99.5842 16.18 100.078 16.28 100.651 16.28C101.184 16.28 101.638 16.2067 102.011 16.06C102.398 15.9 102.778 15.66 103.151 15.34L105.151 17.42C104.631 17.9933 103.991 18.4333 103.231 18.74C102.471 19.0333 101.571 19.18 100.531 19.18ZM114.01 19V16.98L113.75 16.48V12.76C113.75 12.16 113.563 11.7 113.19 11.38C112.83 11.0467 112.25 10.88 111.45 10.88C110.93 10.88 110.403 10.9667 109.87 11.14C109.337 11.3 108.883 11.5267 108.51 11.82L107.23 9.24C107.843 8.84 108.577 8.53333 109.43 8.32C110.297 8.09333 111.157 7.98 112.01 7.98C113.77 7.98 115.13 8.38667 116.09 9.2C117.063 10 117.55 11.26 117.55 12.98V19H114.01ZM110.81 19.18C109.943 19.18 109.21 19.0333 108.61 18.74C108.01 18.4467 107.55 18.0467 107.23 17.54C106.923 17.0333 106.77 16.4667 106.77 15.84C106.77 15.1733 106.937 14.6 107.27 14.12C107.617 13.6267 108.143 13.2533 108.85 13C109.557 12.7333 110.47 12.6 111.59 12.6H114.15V14.58H112.11C111.497 14.58 111.063 14.68 110.81 14.88C110.57 15.08 110.45 15.3467 110.45 15.68C110.45 16.0133 110.577 16.28 110.83 16.48C111.083 16.68 111.43 16.78 111.87 16.78C112.283 16.78 112.657 16.68 112.99 16.48C113.337 16.2667 113.59 15.9467 113.75 15.52L114.27 16.92C114.07 17.6667 113.677 18.2333 113.09 18.62C112.517 18.9933 111.757 19.18 110.81 19.18ZM124.805 19.18C123.819 19.18 122.919 18.9533 122.105 18.5C121.305 18.0333 120.665 17.3867 120.185 16.56C119.705 15.72 119.465 14.72 119.465 13.56C119.465 12.4133 119.705 11.4267 120.185 10.6C120.665 9.76 121.305 9.11333 122.105 8.66C122.919 8.20667 123.819 7.98 124.805 7.98C125.739 7.98 126.525 8.18 127.165 8.58C127.819 8.98 128.312 9.59333 128.645 10.42C128.979 11.2467 129.145 12.2933 129.145 13.56C129.145 14.8533 128.985 15.9133 128.665 16.74C128.345 17.5667 127.865 18.18 127.225 18.58C126.585 18.98 125.779 19.18 124.805 19.18ZM125.605 16.16C126.032 16.16 126.412 16.06 126.745 15.86C127.092 15.66 127.365 15.3667 127.565 14.98C127.765 14.58 127.865 14.1067 127.865 13.56C127.865 13.0133 127.765 12.5533 127.565 12.18C127.365 11.7933 127.092 11.5 126.745 11.3C126.412 11.1 126.032 11 125.605 11C125.165 11 124.772 11.1 124.425 11.3C124.092 11.5 123.825 11.7933 123.625 12.18C123.425 12.5533 123.325 13.0133 123.325 13.56C123.325 14.1067 123.425 14.58 123.625 14.98C123.825 15.3667 124.092 15.66 124.425 15.86C124.772 16.06 125.165 16.16 125.605 16.16ZM127.985 19V17.14L128.005 13.56L127.805 9.98V4.16H131.605V19H127.985ZM137.99 19.18C137.07 19.18 136.17 19.0733 135.29 18.86C134.423 18.6467 133.723 18.38 133.19 18.06L134.33 15.46C134.837 15.7667 135.43 16.0133 136.11 16.2C136.79 16.3733 137.457 16.46 138.11 16.46C138.75 16.46 139.19 16.3933 139.43 16.26C139.683 16.1267 139.81 15.9467 139.81 15.72C139.81 15.5067 139.69 15.3533 139.45 15.26C139.223 15.1533 138.917 15.0733 138.53 15.02C138.157 14.9667 137.743 14.9067 137.29 14.84C136.837 14.7733 136.377 14.6867 135.91 14.58C135.457 14.46 135.037 14.2867 134.65 14.06C134.277 13.82 133.977 13.5 133.75 13.1C133.523 12.7 133.41 12.1933 133.41 11.58C133.41 10.8867 133.61 10.2733 134.01 9.74C134.423 9.19333 135.023 8.76667 135.81 8.46C136.597 8.14 137.557 7.98 138.69 7.98C139.45 7.98 140.217 8.06 140.99 8.22C141.777 8.36667 142.437 8.59333 142.97 8.9L141.83 11.48C141.297 11.1733 140.763 10.9667 140.23 10.86C139.697 10.74 139.19 10.68 138.71 10.68C138.07 10.68 137.617 10.7533 137.35 10.9C137.097 11.0467 136.97 11.2267 136.97 11.44C136.97 11.6533 137.083 11.82 137.31 11.94C137.537 12.0467 137.837 12.1333 138.21 12.2C138.597 12.2533 139.017 12.3133 139.47 12.38C139.923 12.4333 140.377 12.52 140.83 12.64C141.297 12.76 141.717 12.94 142.09 13.18C142.477 13.4067 142.783 13.72 143.01 14.12C143.237 14.5067 143.35 15.0067 143.35 15.62C143.35 16.2867 143.143 16.8867 142.73 17.42C142.33 17.9533 141.73 18.38 140.93 18.7C140.143 19.02 139.163 19.18 137.99 19.18Z" fill="#008080"/>
<path d="M7.95 30.31H11.56V31.17H7.95V30.31ZM8.05 34H7.05V27H11.99V27.87H8.05V34ZM16.3523 34V32.88L16.3023 32.67V30.76C16.3023 30.3533 16.1823 30.04 15.9423 29.82C15.709 29.5933 15.3557 29.48 14.8823 29.48C14.569 29.48 14.2623 29.5333 13.9623 29.64C13.6623 29.74 13.409 29.8767 13.2023 30.05L12.8023 29.33C13.0757 29.11 13.4023 28.9433 13.7823 28.83C14.169 28.71 14.5723 28.65 14.9923 28.65C15.719 28.65 16.279 28.8267 16.6723 29.18C17.0657 29.5333 17.2623 30.0733 17.2623 30.8V34H16.3523ZM14.6123 34.06C14.219 34.06 13.8723 33.9933 13.5723 33.86C13.279 33.7267 13.0523 33.5433 12.8923 33.31C12.7323 33.07 12.6523 32.8 12.6523 32.5C12.6523 32.2133 12.719 31.9533 12.8523 31.72C12.9923 31.4867 13.2157 31.3 13.5223 31.16C13.8357 31.02 14.2557 30.95 14.7823 30.95H16.4623V31.64H14.8223C14.3423 31.64 14.019 31.72 13.8523 31.88C13.6857 32.04 13.6023 32.2333 13.6023 32.46C13.6023 32.72 13.7057 32.93 13.9123 33.09C14.119 33.2433 14.4057 33.32 14.7723 33.32C15.1323 33.32 15.4457 33.24 15.7123 33.08C15.9857 32.92 16.1823 32.6867 16.3023 32.38L16.4923 33.04C16.3657 33.3533 16.1423 33.6033 15.8223 33.79C15.5023 33.97 15.099 34.06 14.6123 34.06ZM20.5589 34.06C20.1189 34.06 19.6989 34 19.2989 33.88C18.9056 33.76 18.5956 33.6133 18.3689 33.44L18.7689 32.68C18.9956 32.8333 19.2756 32.9633 19.6089 33.07C19.9422 33.1767 20.2822 33.23 20.6289 33.23C21.0756 33.23 21.3956 33.1667 21.5889 33.04C21.7889 32.9133 21.8889 32.7367 21.8889 32.51C21.8889 32.3433 21.8289 32.2133 21.7089 32.12C21.5889 32.0267 21.4289 31.9567 21.2289 31.91C21.0356 31.8633 20.8189 31.8233 20.5789 31.79C20.3389 31.75 20.0989 31.7033 19.8589 31.65C19.6189 31.59 19.3989 31.51 19.1989 31.41C18.9989 31.3033 18.8389 31.16 18.7189 30.98C18.5989 30.7933 18.5389 30.5467 18.5389 30.24C18.5389 29.92 18.6289 29.64 18.8089 29.4C18.9889 29.16 19.2422 28.9767 19.5689 28.85C19.9022 28.7167 20.2956 28.65 20.7489 28.65C21.0956 28.65 21.4456 28.6933 21.7989 28.78C22.1589 28.86 22.4522 28.9767 22.6789 29.13L22.2689 29.89C22.0289 29.73 21.7789 29.62 21.5189 29.56C21.2589 29.5 20.9989 29.47 20.7389 29.47C20.3189 29.47 20.0056 29.54 19.7989 29.68C19.5922 29.8133 19.4889 29.9867 19.4889 30.2C19.4889 30.38 19.5489 30.52 19.6689 30.62C19.7956 30.7133 19.9556 30.7867 20.1489 30.84C20.3489 30.8933 20.5689 30.94 20.8089 30.98C21.0489 31.0133 21.2889 31.06 21.5289 31.12C21.7689 31.1733 21.9856 31.25 22.1789 31.35C22.3789 31.45 22.5389 31.59 22.6589 31.77C22.7856 31.95 22.8489 32.19 22.8489 32.49C22.8489 32.81 22.7556 33.0867 22.5689 33.32C22.3822 33.5533 22.1189 33.7367 21.7789 33.87C21.4389 33.9967 21.0322 34.06 20.5589 34.06ZM26.8787 28.65C27.312 28.65 27.692 28.7333 28.0187 28.9C28.352 29.0667 28.612 29.32 28.7987 29.66C28.9853 30 29.0787 30.43 29.0787 30.95V34H28.1187V31.06C28.1187 30.5467 27.992 30.16 27.7387 29.9C27.492 29.64 27.142 29.51 26.6887 29.51C26.3487 29.51 26.052 29.5767 25.7987 29.71C25.5453 29.8433 25.3487 30.04 25.2087 30.3C25.0753 30.56 25.0087 30.8833 25.0087 31.27V34H24.0487V26.58H25.0087V30.13L24.8187 29.75C24.992 29.4033 25.2587 29.1333 25.6187 28.94C25.9787 28.7467 26.3987 28.65 26.8787 28.65ZM30.8553 34V28.7H31.8153V34H30.8553ZM31.3353 27.68C31.1486 27.68 30.992 27.62 30.8653 27.5C30.7453 27.38 30.6853 27.2333 30.6853 27.06C30.6853 26.88 30.7453 26.73 30.8653 26.61C30.992 26.49 31.1486 26.43 31.3353 26.43C31.522 26.43 31.6753 26.49 31.7953 26.61C31.922 26.7233 31.9853 26.8667 31.9853 27.04C31.9853 27.22 31.9253 27.3733 31.8053 27.5C31.6853 27.62 31.5286 27.68 31.3353 27.68ZM35.9183 34.06C35.3849 34.06 34.9116 33.9433 34.4983 33.71C34.0849 33.4767 33.7583 33.1567 33.5183 32.75C33.2783 32.3367 33.1583 31.87 33.1583 31.35C33.1583 30.8233 33.2783 30.3567 33.5183 29.95C33.7583 29.5433 34.0849 29.2267 34.4983 29C34.9116 28.7667 35.3849 28.65 35.9183 28.65C36.4449 28.65 36.9149 28.7667 37.3283 29C37.7483 29.2267 38.0749 29.5433 38.3083 29.95C38.5483 30.35 38.6683 30.8167 38.6683 31.35C38.6683 31.8767 38.5483 32.3433 38.3083 32.75C38.0749 33.1567 37.7483 33.4767 37.3283 33.71C36.9149 33.9433 36.4449 34.06 35.9183 34.06ZM35.9183 33.22C36.2583 33.22 36.5616 33.1433 36.8283 32.99C37.1016 32.8367 37.3149 32.62 37.4683 32.34C37.6216 32.0533 37.6983 31.7233 37.6983 31.35C37.6983 30.97 37.6216 30.6433 37.4683 30.37C37.3149 30.09 37.1016 29.8733 36.8283 29.72C36.5616 29.5667 36.2583 29.49 35.9183 29.49C35.5783 29.49 35.2749 29.5667 35.0083 29.72C34.7416 29.8733 34.5283 30.09 34.3683 30.37C34.2083 30.6433 34.1283 30.97 34.1283 31.35C34.1283 31.7233 34.2083 32.0533 34.3683 32.34C34.5283 32.62 34.7416 32.8367 35.0083 32.99C35.2749 33.1433 35.5783 33.22 35.9183 33.22ZM42.8259 28.65C43.2593 28.65 43.6393 28.7333 43.9659 28.9C44.2993 29.0667 44.5593 29.32 44.7459 29.66C44.9326 30 45.0259 30.43 45.0259 30.95V34H44.0659V31.06C44.0659 30.5467 43.9393 30.16 43.6859 29.9C43.4393 29.64 43.0893 29.51 42.6359 29.51C42.2959 29.51 41.9993 29.5767 41.7459 29.71C41.4926 29.8433 41.2959 30.04 41.1559 30.3C41.0226 30.56 40.9559 30.8833 40.9559 31.27V34H39.9959V28.7H40.9159V30.13L40.7659 29.75C40.9393 29.4033 41.2059 29.1333 41.5659 28.94C41.9259 28.7467 42.3459 28.65 42.8259 28.65ZM50.6081 34L48.6381 28.7H49.5481L51.2981 33.5H50.8681L52.6881 28.7H53.4981L55.2781 33.5H54.8581L56.6481 28.7H57.5081L55.5281 34H54.6081L52.9381 29.62H53.2181L51.5281 34H50.6081ZM58.4823 34V28.7H59.4423V34H58.4823ZM58.9623 27.68C58.7756 27.68 58.6189 27.62 58.4923 27.5C58.3723 27.38 58.3123 27.2333 58.3123 27.06C58.3123 26.88 58.3723 26.73 58.4923 26.61C58.6189 26.49 58.7756 26.43 58.9623 26.43C59.1489 26.43 59.3023 26.49 59.4223 26.61C59.5489 26.7233 59.6123 26.8667 59.6123 27.04C59.6123 27.22 59.5523 27.3733 59.4323 27.5C59.3123 27.62 59.1556 27.68 58.9623 27.68ZM63.0952 34.06C62.5619 34.06 62.1486 33.9167 61.8552 33.63C61.5619 33.3433 61.4152 32.9333 61.4152 32.4V27.54H62.3752V32.36C62.3752 32.6467 62.4452 32.8667 62.5852 33.02C62.7319 33.1733 62.9386 33.25 63.2052 33.25C63.5052 33.25 63.7552 33.1667 63.9552 33L64.2552 33.69C64.1086 33.8167 63.9319 33.91 63.7252 33.97C63.5252 34.03 63.3152 34.06 63.0952 34.06ZM60.5152 29.49V28.7H63.8952V29.49H60.5152ZM68.2459 28.65C68.6792 28.65 69.0592 28.7333 69.3859 28.9C69.7192 29.0667 69.9792 29.32 70.1659 29.66C70.3525 30 70.4459 30.43 70.4459 30.95V34H69.4859V31.06C69.4859 30.5467 69.3592 30.16 69.1059 29.9C68.8592 29.64 68.5092 29.51 68.0559 29.51C67.7159 29.51 67.4192 29.5767 67.1659 29.71C66.9125 29.8433 66.7159 30.04 66.5759 30.3C66.4425 30.56 66.3759 30.8833 66.3759 31.27V34H65.4159V26.58H66.3759V30.13L66.1859 29.75C66.3592 29.4033 66.6259 29.1333 66.9859 28.94C67.3459 28.7467 67.7659 28.65 68.2459 28.65ZM78.198 34V32.88L78.148 32.67V30.76C78.148 30.3533 78.028 30.04 77.788 29.82C77.5547 29.5933 77.2014 29.48 76.728 29.48C76.4147 29.48 76.108 29.5333 75.808 29.64C75.508 29.74 75.2547 29.8767 75.048 30.05L74.648 29.33C74.9214 29.11 75.248 28.9433 75.628 28.83C76.0147 28.71 76.418 28.65 76.838 28.65C77.5647 28.65 78.1247 28.8267 78.518 29.18C78.9114 29.5333 79.108 30.0733 79.108 30.8V34H78.198ZM76.458 34.06C76.0647 34.06 75.718 33.9933 75.418 33.86C75.1247 33.7267 74.898 33.5433 74.738 33.31C74.578 33.07 74.498 32.8 74.498 32.5C74.498 32.2133 74.5647 31.9533 74.698 31.72C74.838 31.4867 75.0614 31.3 75.368 31.16C75.6814 31.02 76.1014 30.95 76.628 30.95H78.308V31.64H76.668C76.188 31.64 75.8647 31.72 75.698 31.88C75.5314 32.04 75.448 32.2333 75.448 32.46C75.448 32.72 75.5514 32.93 75.758 33.09C75.9647 33.2433 76.2514 33.32 76.618 33.32C76.978 33.32 77.2914 33.24 77.558 33.08C77.8314 32.92 78.028 32.6867 78.148 32.38L78.338 33.04C78.2114 33.3533 77.988 33.6033 77.668 33.79C77.348 33.97 76.9447 34.06 76.458 34.06ZM86.8402 34.08C86.3068 34.08 85.8135 33.9933 85.3602 33.82C84.9135 33.64 84.5235 33.39 84.1902 33.07C83.8635 32.7433 83.6068 32.3633 83.4202 31.93C83.2335 31.4967 83.1402 31.02 83.1402 30.5C83.1402 29.98 83.2335 29.5033 83.4202 29.07C83.6068 28.6367 83.8668 28.26 84.2002 27.94C84.5335 27.6133 84.9235 27.3633 85.3702 27.19C85.8235 27.01 86.3168 26.92 86.8502 26.92C87.3902 26.92 87.8868 27.0133 88.3402 27.2C88.8002 27.38 89.1902 27.65 89.5102 28.01L88.8602 28.64C88.5935 28.36 88.2935 28.1533 87.9602 28.02C87.6268 27.88 87.2702 27.81 86.8902 27.81C86.4968 27.81 86.1302 27.8767 85.7902 28.01C85.4568 28.1433 85.1668 28.33 84.9202 28.57C84.6735 28.81 84.4802 29.0967 84.3402 29.43C84.2068 29.7567 84.1402 30.1133 84.1402 30.5C84.1402 30.8867 84.2068 31.2467 84.3402 31.58C84.4802 31.9067 84.6735 32.19 84.9202 32.43C85.1668 32.67 85.4568 32.8567 85.7902 32.99C86.1302 33.1233 86.4968 33.19 86.8902 33.19C87.2702 33.19 87.6268 33.1233 87.9602 32.99C88.2935 32.85 88.5935 32.6367 88.8602 32.35L89.5102 32.98C89.1902 33.34 88.8002 33.6133 88.3402 33.8C87.8868 33.9867 87.3868 34.08 86.8402 34.08ZM92.8421 34.06C92.3088 34.06 91.8354 33.9433 91.4221 33.71C91.0088 33.4767 90.6821 33.1567 90.4421 32.75C90.2021 32.3367 90.0821 31.87 90.0821 31.35C90.0821 30.8233 90.2021 30.3567 90.4421 29.95C90.6821 29.5433 91.0088 29.2267 91.4221 29C91.8354 28.7667 92.3088 28.65 92.8421 28.65C93.3688 28.65 93.8388 28.7667 94.2521 29C94.6721 29.2267 94.9988 29.5433 95.2321 29.95C95.4721 30.35 95.5921 30.8167 95.5921 31.35C95.5921 31.8767 95.4721 32.3433 95.2321 32.75C94.9988 33.1567 94.6721 33.4767 94.2521 33.71C93.8388 33.9433 93.3688 34.06 92.8421 34.06ZM92.8421 33.22C93.1821 33.22 93.4854 33.1433 93.7521 32.99C94.0254 32.8367 94.2388 32.62 94.3921 32.34C94.5454 32.0533 94.6221 31.7233 94.6221 31.35C94.6221 30.97 94.5454 30.6433 94.3921 30.37C94.2388 30.09 94.0254 29.8733 93.7521 29.72C93.4854 29.5667 93.1821 29.49 92.8421 29.49C92.5021 29.49 92.1988 29.5667 91.9321 29.72C91.6654 29.8733 91.4521 30.09 91.2921 30.37C91.1321 30.6433 91.0521 30.97 91.0521 31.35C91.0521 31.7233 91.1321 32.0533 91.2921 32.34C91.4521 32.62 91.6654 32.8367 91.9321 32.99C92.1988 33.1433 92.5021 33.22 92.8421 33.22ZM99.7498 28.65C100.183 28.65 100.563 28.7333 100.89 28.9C101.223 29.0667 101.483 29.32 101.67 29.66C101.856 30 101.95 30.43 101.95 30.95V34H100.99V31.06C100.99 30.5467 100.863 30.16 100.61 29.9C100.363 29.64 100.013 29.51 99.5598 29.51C99.2198 29.51 98.9231 29.5767 98.6698 29.71C98.4164 29.8433 98.2198 30.04 98.0798 30.3C97.9464 30.56 97.8798 30.8833 97.8798 31.27V34H96.9198V28.7H97.8398V30.13L97.6898 29.75C97.8631 29.4033 98.1298 29.1333 98.4898 28.94C98.8498 28.7467 99.2698 28.65 99.7498 28.65ZM105.246 34.06C104.806 34.06 104.386 34 103.986 33.88C103.593 33.76 103.283 33.6133 103.056 33.44L103.456 32.68C103.683 32.8333 103.963 32.9633 104.296 33.07C104.63 33.1767 104.97 33.23 105.316 33.23C105.763 33.23 106.083 33.1667 106.276 33.04C106.476 32.9133 106.576 32.7367 106.576 32.51C106.576 32.3433 106.516 32.2133 106.396 32.12C106.276 32.0267 106.116 31.9567 105.916 31.91C105.723 31.8633 105.506 31.8233 105.266 31.79C105.026 31.75 104.786 31.7033 104.546 31.65C104.306 31.59 104.086 31.51 103.886 31.41C103.686 31.3033 103.526 31.16 103.406 30.98C103.286 30.7933 103.226 30.5467 103.226 30.24C103.226 29.92 103.316 29.64 103.496 29.4C103.676 29.16 103.93 28.9767 104.256 28.85C104.59 28.7167 104.983 28.65 105.436 28.65C105.783 28.65 106.133 28.6933 106.486 28.78C106.846 28.86 107.14 28.9767 107.366 29.13L106.956 29.89C106.716 29.73 106.466 29.62 106.206 29.56C105.946 29.5 105.686 29.47 105.426 29.47C105.006 29.47 104.693 29.54 104.486 29.68C104.28 29.8133 104.176 29.9867 104.176 30.2C104.176 30.38 104.236 30.52 104.356 30.62C104.483 30.7133 104.643 30.7867 104.836 30.84C105.036 30.8933 105.256 30.94 105.496 30.98C105.736 31.0133 105.976 31.06 106.216 31.12C106.456 31.1733 106.673 31.25 106.866 31.35C107.066 31.45 107.226 31.59 107.346 31.77C107.473 31.95 107.536 32.19 107.536 32.49C107.536 32.81 107.443 33.0867 107.256 33.32C107.07 33.5533 106.806 33.7367 106.466 33.87C106.126 33.9967 105.72 34.06 105.246 34.06ZM111.046 34.06C110.506 34.06 110.023 33.9433 109.596 33.71C109.176 33.4767 108.846 33.1567 108.606 32.75C108.366 32.3433 108.246 31.8767 108.246 31.35C108.246 30.8233 108.366 30.3567 108.606 29.95C108.846 29.5433 109.176 29.2267 109.596 29C110.023 28.7667 110.506 28.65 111.046 28.65C111.526 28.65 111.953 28.7467 112.326 28.94C112.706 29.1267 113 29.4067 113.206 29.78L112.476 30.25C112.303 29.99 112.09 29.8 111.836 29.68C111.59 29.5533 111.323 29.49 111.036 29.49C110.69 29.49 110.38 29.5667 110.106 29.72C109.833 29.8733 109.616 30.09 109.456 30.37C109.296 30.6433 109.216 30.97 109.216 31.35C109.216 31.73 109.296 32.06 109.456 32.34C109.616 32.62 109.833 32.8367 110.106 32.99C110.38 33.1433 110.69 33.22 111.036 33.22C111.323 33.22 111.59 33.16 111.836 33.04C112.09 32.9133 112.303 32.72 112.476 32.46L113.206 32.92C113 33.2867 112.706 33.57 112.326 33.77C111.953 33.9633 111.526 34.06 111.046 34.06ZM114.381 34V28.7H115.341V34H114.381ZM114.861 27.68C114.674 27.68 114.517 27.62 114.391 27.5C114.271 27.38 114.211 27.2333 114.211 27.06C114.211 26.88 114.271 26.73 114.391 26.61C114.517 26.49 114.674 26.43 114.861 26.43C115.047 26.43 115.201 26.49 115.321 26.61C115.447 26.7233 115.511 26.8667 115.511 27.04C115.511 27.22 115.451 27.3733 115.331 27.5C115.211 27.62 115.054 27.68 114.861 27.68ZM119.534 34.06C118.967 34.06 118.467 33.9433 118.034 33.71C117.607 33.4767 117.274 33.1567 117.034 32.75C116.8 32.3433 116.684 31.8767 116.684 31.35C116.684 30.8233 116.797 30.3567 117.024 29.95C117.257 29.5433 117.574 29.2267 117.974 29C118.38 28.7667 118.837 28.65 119.344 28.65C119.857 28.65 120.31 28.7633 120.704 28.99C121.097 29.2167 121.404 29.5367 121.624 29.95C121.85 30.3567 121.964 30.8333 121.964 31.38C121.964 31.42 121.96 31.4667 121.954 31.52C121.954 31.5733 121.95 31.6233 121.944 31.67H117.434V30.98H121.444L121.054 31.22C121.06 30.88 120.99 30.5767 120.844 30.31C120.697 30.0433 120.494 29.8367 120.234 29.69C119.98 29.5367 119.684 29.46 119.344 29.46C119.01 29.46 118.714 29.5367 118.454 29.69C118.194 29.8367 117.99 30.0467 117.844 30.32C117.697 30.5867 117.624 30.8933 117.624 31.24V31.4C117.624 31.7533 117.704 32.07 117.864 32.35C118.03 32.6233 118.26 32.8367 118.554 32.99C118.847 33.1433 119.184 33.22 119.564 33.22C119.877 33.22 120.16 33.1667 120.414 33.06C120.674 32.9533 120.9 32.7933 121.094 32.58L121.624 33.2C121.384 33.48 121.084 33.6933 120.724 33.84C120.37 33.9867 119.974 34.06 119.534 34.06ZM126.127 28.65C126.56 28.65 126.94 28.7333 127.267 28.9C127.6 29.0667 127.86 29.32 128.047 29.66C128.233 30 128.327 30.43 128.327 30.95V34H127.367V31.06C127.367 30.5467 127.24 30.16 126.987 29.9C126.74 29.64 126.39 29.51 125.937 29.51C125.597 29.51 125.3 29.5767 125.047 29.71C124.793 29.8433 124.597 30.04 124.457 30.3C124.323 30.56 124.257 30.8833 124.257 31.27V34H123.297V28.7H124.217V30.13L124.067 29.75C124.24 29.4033 124.507 29.1333 124.867 28.94C125.227 28.7467 125.647 28.65 126.127 28.65ZM132.413 34.06C131.873 34.06 131.39 33.9433 130.963 33.71C130.543 33.4767 130.213 33.1567 129.973 32.75C129.733 32.3433 129.613 31.8767 129.613 31.35C129.613 30.8233 129.733 30.3567 129.973 29.95C130.213 29.5433 130.543 29.2267 130.963 29C131.39 28.7667 131.873 28.65 132.413 28.65C132.893 28.65 133.32 28.7467 133.693 28.94C134.073 29.1267 134.367 29.4067 134.573 29.78L133.843 30.25C133.67 29.99 133.457 29.8 133.203 29.68C132.957 29.5533 132.69 29.49 132.403 29.49C132.057 29.49 131.747 29.5667 131.473 29.72C131.2 29.8733 130.983 30.09 130.823 30.37C130.663 30.6433 130.583 30.97 130.583 31.35C130.583 31.73 130.663 32.06 130.823 32.34C130.983 32.62 131.2 32.8367 131.473 32.99C131.747 33.1433 132.057 33.22 132.403 33.22C132.69 33.22 132.957 33.16 133.203 33.04C133.457 32.9133 133.67 32.72 133.843 32.46L134.573 32.92C134.367 33.2867 134.073 33.57 133.693 33.77C133.32 33.9633 132.893 34.06 132.413 34.06ZM138.098 34.06C137.531 34.06 137.031 33.9433 136.598 33.71C136.171 33.4767 135.838 33.1567 135.598 32.75C135.365 32.3433 135.248 31.8767 135.248 31.35C135.248 30.8233 135.361 30.3567 135.588 29.95C135.821 29.5433 136.138 29.2267 136.538 29C136.945 28.7667 137.401 28.65 137.908 28.65C138.421 28.65 138.875 28.7633 139.268 28.99C139.661 29.2167 139.968 29.5367 140.188 29.95C140.415 30.3567 140.528 30.8333 140.528 31.38C140.528 31.42 140.525 31.4667 140.518 31.52C140.518 31.5733 140.515 31.6233 140.508 31.67H135.998V30.98H140.008L139.618 31.22C139.625 30.88 139.555 30.5767 139.408 30.31C139.261 30.0433 139.058 29.8367 138.798 29.69C138.545 29.5367 138.248 29.46 137.908 29.46C137.575 29.46 137.278 29.5367 137.018 29.69C136.758 29.8367 136.555 30.0467 136.408 30.32C136.261 30.5867 136.188 30.8933 136.188 31.24V31.4C136.188 31.7533 136.268 32.07 136.428 32.35C136.595 32.6233 136.825 32.8367 137.118 32.99C137.411 33.1433 137.748 33.22 138.128 33.22C138.441 33.22 138.725 33.1667 138.978 33.06C139.238 32.9533 139.465 32.7933 139.658 32.58L140.188 33.2C139.948 33.48 139.648 33.6933 139.288 33.84C138.935 33.9867 138.538 34.06 138.098 34.06Z" fill="#333333"/>
</svg>
