<svg width="14" height="22" viewBox="0 0 14 22" fill="none" xmlns="http://www.w3.org/2000/svg">
<path fill-rule="evenodd" clip-rule="evenodd" d="M2.99992 0.333374C1.53325 0.333374 0.333252 1.53337 0.333252 3.00004C0.333252 4.46671 1.53325 5.66671 2.99992 5.66671C4.46659 5.66671 5.66659 4.46671 5.66659 3.00004C5.66659 1.53337 4.46659 0.333374 2.99992 0.333374ZM0.333252 11C0.333252 9.53337 1.53325 8.33337 2.99992 8.33337C4.46659 8.33337 5.66659 9.53337 5.66659 11C5.66659 12.4667 4.46659 13.6667 2.99992 13.6667C1.53325 13.6667 0.333252 12.4667 0.333252 11ZM2.99992 21.6667C4.46659 21.6667 5.66659 20.4667 5.66659 19C5.66659 17.5334 4.46659 16.3334 2.99992 16.3334C1.53325 16.3334 0.333252 17.5334 0.333252 19C0.333252 20.4667 1.53325 21.6667 2.99992 21.6667ZM13.6666 3.00004C13.6666 4.46671 12.4666 5.66671 10.9999 5.66671C9.53325 5.66671 8.33325 4.46671 8.33325 3.00004C8.33325 1.53337 9.53325 0.333374 10.9999 0.333374C12.4666 0.333374 13.6666 1.53337 13.6666 3.00004ZM10.9999 8.33337C9.53325 8.33337 8.33325 9.53337 8.33325 11C8.33325 12.4667 9.53325 13.6667 10.9999 13.6667C12.4666 13.6667 13.6666 12.4667 13.6666 11C13.6666 9.53337 12.4666 8.33337 10.9999 8.33337ZM8.33325 19C8.33325 17.5334 9.53325 16.3334 10.9999 16.3334C12.4666 16.3334 13.6666 17.5334 13.6666 19C13.6666 20.4667 12.4666 21.6667 10.9999 21.6667C9.53325 21.6667 8.33325 20.4667 8.33325 19Z" fill="white"/>
</svg>
