<svg width="23" height="24" viewBox="0 0 23 24" fill="none" xmlns="http://www.w3.org/2000/svg">
<path d="M2.3125 11.9308C2.3125 6.11713 6.76854 1.4043 12.2653 1.4043C17.762 1.4043 22.2181 6.11713 22.2181 11.9308C22.2181 17.7444 17.762 22.4572 12.2653 22.4572C8.25292 22.4572 4.79509 19.9461 3.22011 16.3287" stroke="#008080" stroke-width="1.5" stroke-linecap="round" stroke-linejoin="round"/>
<path d="M14.5234 3.55566C14.8523 3.79339 15.2015 4.05889 15.3272 4.45865C15.4285 4.78102 15.3645 5.13274 15.3907 5.47133C15.441 6.12237 15.8575 6.72684 16.428 6.97698C16.5172 7.01608 16.6141 7.05041 16.6763 7.12865C16.731 7.19758 16.7499 7.29106 16.7521 7.38097C16.7686 8.04449 15.694 8.44587 15.2526 8.75708C15.0214 8.9267 14.7631 9.15396 14.7887 9.45031C14.8151 9.75593 15.1324 9.93282 15.4178 9.98846C15.7032 10.0441 16.0165 10.0436 16.2485 10.2279C16.5807 10.4916 16.5978 11.0111 16.5215 11.4428C16.4451 11.8746 16.3076 12.3244 16.4385 12.7413C16.4851 12.8895 16.5634 13.0238 16.6299 13.1633C16.958 13.8522 16.9895 14.65 17.038 15.4197C17.0523 15.6469 17.0723 15.8857 17.1935 16.0738C17.3146 16.262 17.5727 16.3716 17.7522 16.2462C17.8493 15.3666 18.0344 14.3466 18.7821 13.9479C18.9791 13.8428 19.1985 13.7936 19.4008 13.7003C20.2561 13.3059 20.6212 12.2393 20.7801 11.2669" stroke="#008080" stroke-width="1.5" stroke-linecap="round" stroke-linejoin="round"/>
<path d="M2.9158 20.3099C4.81337 22.838 8.53636 21.7049 8.53636 21.7049C10.5658 15.6316 2.41788 13.4814 2.41788 13.4814C2.41788 13.4814 0.552462 17.1613 2.9158 20.3099Z" stroke="#008080" stroke-width="1.5" stroke-linecap="round" stroke-linejoin="round"/>
<path d="M8.03125 15.1492C8.03125 15.1492 8.5989 13.3872 9.96127 12.7178C9.96127 12.7178 12.7238 15.3897 9.92343 19.6863" stroke="#008080" stroke-width="1.5" stroke-linecap="round" stroke-linejoin="round"/>
<path d="M4.03125 12.222C4.57096 12.1714 5.11943 12.1188 5.6231 11.9077C6.12676 11.6966 6.58849 11.3007 6.76224 10.758C6.85652 10.4635 6.86765 10.1292 7.04499 9.88127C7.14158 9.74625 7.27867 9.65097 7.41566 9.56334C7.90518 9.25023 8.44017 8.99098 8.83084 8.54898C9.22151 8.10698 9.42904 7.4055 9.12851 6.89067C8.92717 6.54574 8.55019 6.36207 8.29933 6.05558C7.89231 5.55822 7.7604 4.70507 7.1503 4.57715" stroke="#008080" stroke-width="1.5" stroke-linecap="round" stroke-linejoin="round"/>
<path d="M18.0802 18.4776C17.8151 18.4765 17.5404 18.5362 17.2812 18.5928C16.9595 18.6632 16.5824 18.7439 16.3067 18.9354C16.1227 19.0633 15.944 19.2138 15.8396 19.4189C15.7018 19.6897 15.7125 20.0145 15.7267 20.3216" stroke="#008080" stroke-width="1.5" stroke-linecap="round" stroke-linejoin="round"/>
</svg>
