<svg width="14" height="8" viewBox="0 0 14 8" fill="none" xmlns="http://www.w3.org/2000/svg">
<path fill-rule="evenodd" clip-rule="evenodd" d="M1.63724 3.58663C1.82391 2.60663 2.74391 1.93329 3.74391 1.93329H5.69724C6.04391 1.93329 6.33058 1.64663 6.33058 1.29996C6.33058 0.953293 6.04391 0.666626 5.69724 0.666626H3.81058C2.07058 0.666626 0.517243 1.93996 0.350576 3.67329C0.157243 5.65996 1.71724 7.33329 3.66391 7.33329H5.69724C6.04391 7.33329 6.33058 7.04663 6.33058 6.69996C6.33058 6.35329 6.04391 6.06663 5.69724 6.06663H3.66391C2.39058 6.06663 1.38391 4.90663 1.63724 3.58663ZM4.99724 4.66663H8.99724C9.36391 4.66663 9.66391 4.36663 9.66391 3.99996C9.66391 3.63329 9.36391 3.33329 8.99724 3.33329H4.99724C4.63058 3.33329 4.33058 3.63329 4.33058 3.99996C4.33058 4.36663 4.63058 4.66663 4.99724 4.66663ZM8.29724 0.666626H10.1839C11.9239 0.666626 13.4839 1.93996 13.6506 3.67329C13.8372 5.65996 12.2772 7.33329 10.3306 7.33329H8.29724C7.95058 7.33329 7.66391 7.04663 7.66391 6.69996C7.66391 6.35329 7.95058 6.06663 8.29724 6.06663H10.3306C11.6039 6.06663 12.6106 4.90663 12.3572 3.58663C12.1706 2.60663 11.2506 1.93329 10.2506 1.93329H8.29724C7.95058 1.93329 7.66391 1.64663 7.66391 1.29996C7.66391 0.953293 7.95058 0.666626 8.29724 0.666626Z" fill="#008080"/>
</svg>
